<!-- icon666.com - MILLIONS vector ICONS FREE --><svg viewBox="-62 0 480 480" xmlns="http://www.w3.org/2000/svg"><path d="m66.664062 300.425781-6.664062-4.425781-6.65625-4.441406c-8.566406 13.835937-14.113281 29.324218-16.28125 45.449218-3.023438 24.136719 1.90625 58.585938 42.496094 85.648438l8.882812-13.3125c-64.34375-42.894531-23.546875-106.238281-21.777344-108.917969zm0 0"></path><path d="m164 296h16v16h-16zm0 0"></path><path d="m196 320h16v16h-16zm0 0"></path><path d="m0 348c.0351562 48.398438 26.53125 92.902344 69.0625 116h-33.0625c-4.417969 0-8 3.582031-8 8s3.582031 8 8 8h192c4.417969 0 8-3.582031 8-8s-3.582031-8-8-8h-33.0625c42.53125-23.097656 69.027344-67.601562 69.0625-116 .03125-17.367188-3.402344-34.566406-10.097656-50.59375l99.753906-99.75c3.121094-3.125 3.121094-8.1875 0-11.3125l-48-48c-3.125-3.121094-8.1875-3.121094-11.3125 0l-95.75 95.753906c-3.511719-2.074218-7.058594-3.953125-10.59375-5.601562v-44.777344c13.796875-1.964844 24.050781-13.78125 24.050781-27.71875s-10.253906-25.753906-24.050781-27.71875v-8.5625c13.796875-1.964844 24.050781-13.78125 24.050781-27.71875s-10.253906-25.753906-24.050781-27.71875v-17.648438c11.027344-3.890624 17.644531-15.164062 15.667969-26.691406-1.976563-11.523437-11.972657-19.9492185-23.667969-19.941406h-96c-11.695312-.0078125-21.691406 8.417969-23.667969 19.941406-1.976562 11.527344 4.640625 22.800782 15.667969 26.691406v17.648438c-13.796875 1.964844-24.050781 13.78125-24.050781 27.71875s10.253906 25.753906 24.050781 27.71875v8.5625c-13.796875 1.964844-24.050781 13.78125-24.050781 27.71875s10.253906 25.753906 24.050781 27.71875v44.730469c-46.425781 21.675781-76.0742188 68.3125-76 119.550781zm84-180h-4c-6.628906 0-12-5.371094-12-12s5.371094-12 12-12h4c4.417969 0 8-3.582031 8-8v-24c0-4.417969-3.582031-8-8-8h-4c-6.628906 0-12-5.371094-12-12s5.371094-12 12-12h4c4.417969 0 8-3.582031 8-8v-24h56c4.417969 0 8-3.582031 8-8s-3.582031-8-8-8h-64c-4.417969 0-8-3.582031-8-8s3.582031-8 8-8h96c4.417969 0 8 3.582031 8 8s-3.582031 8-8 8-8 3.582031-8 8v32c0 4.417969 3.582031 8 8 8h4c6.628906 0 12 5.371094 12 12s-5.371094 12-12 12h-4c-4.417969 0-8 3.582031-8 8v24c0 4.417969 3.582031 8 8 8h4c6.628906 0 12 5.371094 12 12s-5.371094 12-12 12h-4c-4.417969 0-8 3.582031-8 8v57.648438c0 3.222656 1.933594 6.128906 4.902344 7.375 6.445312 2.738281 12.628906 6.054687 18.472656 9.914062 3.171875 2.074219 7.363281 1.640625 10.042969-1.042969l94.582031-94.582031 36.6875 36.6875-97.976562 97.96875c-2.378907 2.375-3.019532 5.988281-1.597657 9.039062 7.191407 15.328126 10.910157 32.058594 10.886719 48.992188-.011719 58.140625-43.058594 107.292969-100.6875 114.964844-57.632812 7.675781-112.042969-28.5-127.265625-84.609375-15.222656-56.113281 13.441406-114.824219 67.050781-137.332031 2.96875-1.246094 4.902344-4.152344 4.902344-7.375v-57.648438c0-4.417969-3.582031-8-8-8zm0 0"></path></svg>