<!-- icon666.com - MILLIONS vector ICONS FREE --><svg version="1.1" id="Layer_1" xmlns="http://www.w3.org/2000/svg" xmlns:xlink="http://www.w3.org/1999/xlink" x="0px" y="0px" viewBox="0 0 504.143 504.143" style="enable-background:new 0 0 504.143 504.143;" xml:space="preserve"><path style="" d="M485.599,18.549c24.726,24.718,24.726,64.788,0,89.505L112.681,480.979 c-24.726,24.726-42.417,2.339-67.135-22.378l0,0c-24.71-24.71-47.096-42.409-22.37-67.127L396.093,18.549 C420.819-6.177,460.896-6.161,485.599,18.549L485.599,18.549z" fill="#773217"></path><path style="fill: rgb(79, 41, 28);" d="M485.599,18.549L485.599,18.549c24.726,24.718,24.726,64.788,0,89.505L112.681,480.979 c-24.726,24.726-42.417,2.339-67.135-22.378l0,0" fill="#5B2311"></path><path style="" d="M324.003,90.646l-55.958,55.942c24.726-24.71,64.803-24.71,89.521,0 c24.694,24.718,24.694,64.803,0,89.505l55.926-55.95c24.726-24.71,24.726-64.78,0-89.498 C388.783,65.928,348.713,65.928,324.003,90.646z" fill="#FF9D00"></path><path style="" d="M413.493,90.646l-55.926,55.942c24.694,24.718,24.694,64.803,0,89.505l55.926-55.95 C438.219,155.434,438.219,115.372,413.493,90.646z" fill="#DD8300"></path><path style="" d="M75.384,456.12c10.988,10.98,10.988,28.774,0,39.771l0,0c-10.988,10.98-28.798,10.996-39.771,0.008 L8.241,468.542c-10.988-10.988-10.988-28.806,0-39.786l0,0c10.988-10.988,28.798-10.988,39.771,0L75.384,456.12z" fill="#CE0909"></path></svg>