<!-- icon666.com - MILLIONS vector ICONS FREE --><svg version="1.1" id="Capa_1" xmlns="http://www.w3.org/2000/svg" xmlns:xlink="http://www.w3.org/1999/xlink" x="0px" y="0px" viewBox="0 0 512 512" style="enable-background:new 0 0 512 512;" xml:space="preserve"><g><g><path d="M404.786,0H271.302c-8.402,0-15.213,6.812-15.213,15.213v10.564c0,22.99,15.202,42.496,36.082,48.994v22.746 c0,19.964,12.823,36.979,30.66,43.27v14.309c4.966-0.74,10.045-1.129,15.213-1.129s10.248,0.388,15.213,1.129v-14.309 c17.837-6.29,30.659-23.307,30.659-43.27V74.771c20.88-6.497,36.083-26.004,36.083-48.994V15.213 C419.999,6.812,413.187,0,404.786,0z"></path></g></g><g><g><path d="M194.038,178.715l-0.176,0.176c-12.506,12.506-18.906,29.812-17.555,47.479c1.614,21.109,3.843,62.51,0.643,102.607 c-4.499,56.353-17.079,80.742-26.84,91.279c-6.332,6.834-13.315,10.016-21.978,10.016c-9.052,0-36.597,0-39.566-71.742 c-0.936-22.638,1.151-45.912,6.202-69.173l16.859-77.637l5.285,1.148c1.087,0.236,2.173,0.35,3.242,0.35 c7.002,0,13.306-4.865,14.852-11.988c1.783-8.211-3.428-16.312-11.639-18.095l-5.285-1.147l27.019-124.426 c1.783-8.21-3.428-16.312-11.639-18.095c-8.207-1.787-16.313,3.427-18.095,11.639L88.348,175.532l-5.642-1.225 c-8.203-1.784-16.312,3.428-18.095,11.639c-1.783,8.211,3.428,16.312,11.639,18.095l5.641,1.225l-16.859,77.636 c-5.601,25.793-7.913,51.66-6.869,76.887c1.228,29.677,6.426,52.21,15.892,68.887c11.893,20.951,30.591,32.025,54.074,32.025 c17.244,0,32.147-6.65,44.298-19.764c40.828-44.069,38.962-154.8,34.215-216.884c-0.672-8.804,2.51-17.422,8.731-23.644 l0.176-0.177c10.575-10.575,27.125-11.625,38.89-3.154c5.961-8.337,13.137-15.744,21.266-21.971 C251.945,155.193,216.366,156.386,194.038,178.715z"></path></g></g><g><g><path d="M423.134,366.74c5.069-10.182,7.703-21.201,7.703-32.48c0-20.48-8.689-39.897-24.194-54.764 c2.43-7.328,3.69-15.047,3.69-22.815c0-39.859-32.428-72.285-72.286-72.285s-72.286,32.428-72.286,72.285 c0,7.768,1.259,15.488,3.69,22.815c-15.505,14.867-24.195,34.284-24.195,54.764c0,11.278,2.635,22.3,7.704,32.48 c-19.82,18.574-30.946,42.993-30.946,68.737c0,27.841,12.7,53.765,35.762,72.995c2.734,2.28,6.183,3.529,9.743,3.529h141.06 c3.561,0,7.008-1.248,9.743-3.529c23.06-19.23,35.761-45.154,35.761-72.995C454.079,409.73,442.953,385.314,423.134,366.74z"></path></g></g></svg>