<!-- icon666.com - MILLIONS vector ICONS FREE --><svg version="1.1" id="Layer_1" xmlns="http://www.w3.org/2000/svg" xmlns:xlink="http://www.w3.org/1999/xlink" x="0px" y="0px" viewBox="0 0 512 512" style="enable-background:new 0 0 512 512;" xml:space="preserve"><g><g><g><path d="M255.996,344.453l6.876-10.194c32.317-47.946,49.405-103.974,49.405-162.033c0-58.061-17.088-114.092-49.405-162.035 L255.996,0l-6.868,10.199c-32.32,47.949-49.403,103.979-49.405,162.03c0.005,58.048,17.085,114.079,49.405,162.028 L255.996,344.453z M256.001,30.177c26.01,42.734,39.701,91.579,39.701,142.049s-13.691,99.313-39.701,142.044 c-26.017-42.739-39.706-91.587-39.708-142.044C216.298,121.761,229.984,72.922,256.001,30.177z"></path><path d="M128.483,359.363c-36.331,0-71.393,10.691-101.404,30.915l-10.194,6.871l10.194,6.874 c30.011,20.227,65.073,30.92,101.404,30.92c36.334,0,71.401-10.69,101.407-30.92l10.191-6.874l-10.191-6.871 C199.884,370.053,164.817,359.363,128.483,359.363z M128.483,418.371c-28.623,0-56.381-7.299-81.024-21.22 c24.643-13.911,52.398-21.212,81.024-21.212c28.623,0,56.381,7.301,81.024,21.212 C184.864,411.069,157.106,418.371,128.483,418.371z"></path><path d="M119.246,312.463c28.826,28.818,65.129,48.154,104.986,55.921l12.07,2.353l-2.353-12.068 c-7.762-39.857-27.098-76.163-55.918-104.988c-28.823-28.82-65.124-48.156-104.988-55.918l-12.065-2.353l2.348,12.065 C71.082,247.332,90.42,283.638,119.246,312.463z M166.309,265.398c23.398,23.404,39.997,52.17,48.456,83.804 c-31.636-8.466-60.398-25.06-83.802-48.461c-23.403-23.404-39.997-52.163-48.456-83.799 C114.147,225.405,142.911,241.999,166.309,265.398z"></path><path d="M275.695,370.729l12.07-2.348c39.857-7.764,76.157-27.1,104.98-55.923c28.838-28.828,48.174-65.137,55.926-104.988 l2.345-12.068l-12.063,2.35c-39.87,7.77-76.173,27.11-104.991,55.926c-28.813,28.82-48.148,65.124-55.916,104.98L275.695,370.729 z M345.686,265.398c23.396-23.393,52.163-39.992,83.804-48.458c-8.453,31.634-25.052,60.396-48.461,83.802 c-23.401,23.401-52.163,39.995-83.797,48.458C305.701,317.558,322.292,288.796,345.686,265.398z"></path><path d="M484.917,390.277c-30.008-20.224-65.088-30.915-101.44-30.915c-36.308,0-71.355,10.691-101.358,30.915l-10.191,6.871 l10.191,6.874c30.003,20.227,65.05,30.92,101.358,30.92c36.352,0,71.432-10.69,101.44-30.92l10.199-6.874L484.917,390.277z M383.477,418.371c-28.603,0-56.348-7.299-80.981-21.22c24.632-13.911,52.378-21.212,80.98-21.212 c28.644,0,56.412,7.301,81.062,21.212C439.889,411.069,412.12,418.371,383.477,418.371z"></path><rect x="247.704" y="416.947" width="16.571" height="95.053"></rect></g></g></g></svg>