<!-- icon666.com - MILLIONS vector ICONS FREE --><svg version="1.1" id="Capa_1" xmlns="http://www.w3.org/2000/svg" xmlns:xlink="http://www.w3.org/1999/xlink" x="0px" y="0px" viewBox="0 0 60 60" style="enable-background:new 0 0 60 60;" xml:space="preserve"><g><polygon points="51,31 51,27 35,27 35,53 51,53 51,49 39,49 39,47 51,47 51,45 39,45 39,43 51,43 51,41 39,41 39,39 51,39 51,37 39,37 39,35 51,35 51,33 39,33 39,31 "></polygon><path d="M33,25h17.93c-0.157-1.75-0.698-3.444-1.635-4.942l-2.511-4.019C46.271,15.219,46,14.273,46,13.305V11c0.553,0,1-0.448,1-1 V1c0-0.552-0.447-1-1-1h-3v9h-2V0h-2v9h-2V0h-2v9h-2V0h-2v9h-2V0h-2v9h-2V0h-2v9h-2V0h-2v9h-2V0h-3c-0.553,0-1,0.448-1,1v9 c0,0.552,0.447,1,1,1v2.305c0,0.968-0.271,1.914-0.784,2.735l-2.511,4.018C9.768,21.556,9.227,23.25,9.07,25H18v30H9.022 c0.223,2.794,2.563,5,5.413,5h31.129c2.85,0,5.19-2.206,5.413-5H33V25z"></path><rect x="9" y="27" width="7" height="26"></rect></g></svg>