<?xml version="1.0" standalone="no"?>
<!DOCTYPE svg PUBLIC "-//W3C//DTD SVG 20010904//EN"
 "http://www.w3.org/TR/2001/REC-SVG-20010904/DTD/svg10.dtd">
<svg version="1.0" xmlns="http://www.w3.org/2000/svg"
 width="1280.000000pt" height="640.000000pt" viewBox=""
 preserveAspectRatio="xMidYMid meet">
<metadata>
Created by potrace 1.15, written by Peter Selinger 2001-2017
</metadata>
<g transform="translate(0.000000,640.000000) scale(0.100000,-0.100000)"
fill="#000000" stroke="none">
<path d="M347 5427 c-156 -366 -271 -755 -323 -1097 -13 -81 -18 -173 -18
-315 0 -181 3 -211 26 -312 45 -191 132 -345 250 -446 75 -63 117 -87 251
-145 157 -67 249 -126 354 -225 87 -83 191 -205 218 -257 14 -27 12 -36 -31
-152 -155 -412 -150 -746 14 -1040 33 -61 141 -202 148 -195 2 2 -8 43 -21 92
-85 306 -98 619 -36 855 28 105 62 184 73 168 39 -61 139 -382 164 -524 9 -55
20 -103 24 -107 4 -4 14 18 23 50 62 221 42 523 -47 743 l-25 62 38 51 c77
103 109 189 118 317 21 308 -202 700 -638 1125 -118 115 -311 285 -323 285 -3
0 32 -57 78 -127 279 -431 454 -866 491 -1220 l6 -63 -118 118 c-65 64 -154
151 -197 192 -215 203 -356 498 -430 900 -65 350 -73 849 -20 1274 8 65 13
120 11 122 -2 2 -29 -56 -60 -129z"/>
<path d="M12455 4069 c-288 -59 -439 -90 -625 -129 -107 -22 -238 -49 -290
-60 -52 -11 -183 -38 -290 -60 -107 -22 -238 -49 -290 -60 -52 -11 -183 -38
-290 -60 -107 -22 -238 -49 -290 -60 -52 -11 -183 -38 -290 -60 -107 -22 -238
-49 -290 -60 -52 -10 -160 -33 -240 -50 -80 -17 -273 -58 -430 -90 -157 -32
-352 -73 -435 -90 -82 -17 -193 -40 -245 -50 -52 -11 -183 -38 -290 -60 -107
-23 -215 -45 -240 -50 -25 -4 -155 -31 -290 -59 -135 -29 -276 -58 -315 -66
-38 -8 -180 -37 -315 -65 -269 -56 -473 -98 -535 -110 -22 -5 -150 -31 -285
-59 -135 -29 -276 -58 -315 -66 -38 -8 -180 -37 -315 -65 -273 -57 -475 -99
-535 -110 -22 -4 -152 -31 -290 -60 -137 -29 -333 -69 -435 -90 -102 -21 -315
-66 -475 -99 -636 -131 -935 -193 -1045 -216 -106 -21 -594 -122 -1048 -217
-28 -6 -52 -16 -52 -22 0 -15 202 -990 206 -995 2 -2 38 4 81 12 181 38 580
120 878 182 176 36 372 77 435 90 109 22 531 109 850 176 80 17 165 34 190 39
25 4 155 31 290 59 135 29 407 85 605 126 198 40 403 83 455 93 52 11 106 22
120 25 14 3 135 28 270 56 135 28 265 56 290 61 25 5 189 39 365 75 176 37
372 77 435 90 189 38 736 152 870 180 69 14 145 30 170 35 25 4 153 31 285 58
543 114 1174 245 1240 257 77 14 172 34 465 95 107 22 238 49 290 60 52 11
183 38 290 60 107 22 238 49 290 60 52 11 183 38 290 60 107 22 238 49 290 60
52 11 183 38 290 60 107 22 238 49 290 60 52 11 183 38 290 60 107 22 221 45
253 51 31 6 57 14 57 18 0 3 -14 74 -31 156 -38 182 -96 466 -139 675 -18 85
-35 160 -38 166 -5 7 -49 1 -137 -17z"/>
</g>
</svg>
