<!-- icon666.com - MILLIONS vector ICONS FREE --><svg viewBox="0 0 512 512" xmlns="http://www.w3.org/2000/svg"><path d="m421 226c0 8.285156-6.714844 15-15 15s-15-6.714844-15-15 6.714844-15 15-15 15 6.714844 15 15zm0 0"></path><path d="m421 437c0 8.285156-6.714844 15-15 15s-15-6.714844-15-15 6.714844-15 15-15 15 6.714844 15 15zm0 0"></path><path d="m497 241c8.285156 0 15-6.714844 15-15s-6.714844-15-15-15h-15v-45c0-8.285156-6.714844-15-15-15h-81.730469l-24.269531-48.539062v-87.460938c0-8.285156-6.714844-15-15-15h-61c-8.285156 0-15 6.714844-15 15v87.460938l-28.417969 56.832031c-.957031 1.914062-1.582031 4.40625-1.582031 6.707031v331c0 8.285156 6.714844 15 15 15h212c8.285156 0 15-6.714844 15-15v-196h15c8.285156 0 15-6.714844 15-15s-6.714844-15-15-15h-15v-30zm-227 0h61v181h-61zm24.269531-120h42.460938l15 30h-72.460938zm36.730469-91v61h-31v-61zm121 452h-182v-30h76c8.285156 0 15-6.714844 15-15v-211c0-8.285156-6.714844-15-15-15h-76v-30h182zm0 0"></path><path d="m406 271c-8.285156 0-15 6.714844-15 15v90c0 8.285156 6.714844 15 15 15s15-6.714844 15-15v-90c0-8.285156-6.714844-15-15-15zm0 0"></path><path d="m15 512h180c8.285156 0 15-6.714844 15-15v-151c0-2.328125-.542969-4.625-1.582031-6.707031l-19.148438-38.292969h5.730469c8.285156 0 15-6.714844 15-15v-60c0-.046875-.007812-.089844-.007812-.136719-.109376-12.289062-11.800782-14.332031-14.621094-16.449219-27.984375-13.992187-45.371094-42.125-45.371094-73.414062 0-24.8125-20.1875-45-45-45s-45 20.1875-45 45c0 31.289062-17.386719 59.421875-45.375 73.414062-2.382812 1.78125-14.625 4.332032-14.625 16.585938v60c0 8.285156 6.714844 15 15 15h5.730469l-19.148438 38.292969c-.042969.085937-.074219.179687-.117187.269531-.980469 2.058594-1.464844 4.34375-1.464844 6.4375v151c0 8.285156 6.714844 15 15 15zm105-151v61h-90v-61zm-90-90v-30h150v30zm43.261719-76.074219c10.949219-17.71875 16.738281-38.097656 16.738281-58.925781 0-8.269531 6.730469-15 15-15s15 6.730469 15 15c0 20.828125 5.789062 41.207031 16.738281 58.925781 3.542969 5.734375 7.582031 11.109375 12.050781 16.074219h-87.578124c4.46875-4.964844 8.503906-10.339844 12.050781-16.074219zm82.46875 106.074219 24.269531 48.539062v132.460938h-150v-30h105c8.285156 0 15-6.714844 15-15v-91c0-8.285156-6.714844-15-15-15h-95.730469l15-30zm0 0"></path></svg>